<svg xmlns="http://www.w3.org/2000/svg" xmlns:xlink="http://www.w3.org/1999/xlink" width="576" height="384" version="1.1" viewBox="0 0 432 288"><defs><style type="text/css">*{stroke-linecap:butt;stroke-linejoin:round;stroke-miterlimit:100000}</style></defs><g id="figure_1"><g id="patch_1"><path fill="#fff" d="M 0 288 L 432 288 L 432 0 L 0 0 z"/></g><g id="axes_1"><g id="patch_2"><path fill="#fff" d="M 10.8 92.4 L 421.2 92.4 L 421.2 25.7 L 10.8 25.7 z"/></g><g id="line2d_1"><path fill="none" stroke="#00f" stroke-linecap="square" d="M 10.8 59.05 L 18.31784 54.785297 L 25.835681 50.59062 L 33.353521 46.534845 L 40.871362 42.68457 L 48.389202 39.103014 L 55.907042 35.848987 L 63.424883 32.97592 L 70.942723 30.530989 L 78.460563 28.554339 L 85.978404 27.078427 L 93.496244 26.127488 L 101.014085 25.717135 L 108.531925 25.854107 L 116.049765 26.536154 L 123.567606 27.752078 L 131.085446 29.481913 L 138.603286 31.697255 L 146.121127 34.361729 L 153.638967 37.431583 L 161.156808 40.856411 L 168.674648 44.579977 L 176.192488 48.541141 L 183.710329 52.67486 L 191.228169 56.913258 L 198.746009 61.186742 L 206.26385 65.42514 L 213.78169 69.558859 L 221.299531 73.520023 L 228.817371 77.243589 L 236.335211 80.668417 L 243.853052 83.738271 L 251.370892 86.402745 L 258.888733 88.618087 L 266.406573 90.347922 L 273.924413 91.563846 L 281.442254 92.245893 L 288.960094 92.382865 L 296.477934 91.972512 L 303.995775 91.021573 L 311.513615 89.545661 L 319.031456 87.569011 L 326.549296 85.12408 L 334.067136 82.251013 L 341.584977 78.996986 L 349.102817 75.41543 L 356.620657 71.565155 L 364.138498 67.50938 L 371.656338 63.314703 L 379.174179 59.05" clip-path="url(#p85092e9b7a)"/></g><g id="patch_3"><path fill="none" stroke="#000" stroke-linecap="square" stroke-linejoin="miter" d="M 10.8 92.4 L 10.8 25.7"/></g><g id="patch_4"><path fill="none" stroke="#000" stroke-linecap="square" stroke-linejoin="miter" d="M 10.8 92.4 L 421.2 92.4"/></g><g id="patch_5"><path fill="none" stroke="#000" stroke-linecap="square" stroke-linejoin="miter" d="M 10.8 25.7 L 421.2 25.7"/></g><g id="patch_6"><path fill="none" stroke="#000" stroke-linecap="square" stroke-linejoin="miter" d="M 421.2 92.4 L 421.2 25.7"/></g><g id="matplotlib.axis_1"><g id="xtick_1"><g id="line2d_2"><defs><path id="m0ef7aeb815" stroke="#000" stroke-width=".5" d="M 0 0 L 0 -4"/></defs><g><use x="10.8" y="92.4" stroke="#000" stroke-width=".5" xlink:href="#m0ef7aeb815"/></g></g><g id="line2d_3"><defs><path id="m9de6353515" stroke="#000" stroke-width=".5" d="M 0 0 L 0 4"/></defs><g><use x="10.8" y="25.7" stroke="#000" stroke-width=".5" xlink:href="#m9de6353515"/></g></g></g><g id="xtick_2"><g id="line2d_4"><g><use x="69.429" y="92.4" stroke="#000" stroke-width=".5" xlink:href="#m0ef7aeb815"/></g></g><g id="line2d_5"><g><use x="69.429" y="25.7" stroke="#000" stroke-width=".5" xlink:href="#m9de6353515"/></g></g></g><g id="xtick_3"><g id="line2d_6"><g><use x="128.057" y="92.4" stroke="#000" stroke-width=".5" xlink:href="#m0ef7aeb815"/></g></g><g id="line2d_7"><g><use x="128.057" y="25.7" stroke="#000" stroke-width=".5" xlink:href="#m9de6353515"/></g></g></g><g id="xtick_4"><g id="line2d_8"><g><use x="186.686" y="92.4" stroke="#000" stroke-width=".5" xlink:href="#m0ef7aeb815"/></g></g><g id="line2d_9"><g><use x="186.686" y="25.7" stroke="#000" stroke-width=".5" xlink:href="#m9de6353515"/></g></g></g><g id="xtick_5"><g id="line2d_10"><g><use x="245.314" y="92.4" stroke="#000" stroke-width=".5" xlink:href="#m0ef7aeb815"/></g></g><g id="line2d_11"><g><use x="245.314" y="25.7" stroke="#000" stroke-width=".5" xlink:href="#m9de6353515"/></g></g></g><g id="xtick_6"><g id="line2d_12"><g><use x="303.943" y="92.4" stroke="#000" stroke-width=".5" xlink:href="#m0ef7aeb815"/></g></g><g id="line2d_13"><g><use x="303.943" y="25.7" stroke="#000" stroke-width=".5" xlink:href="#m9de6353515"/></g></g></g><g id="xtick_7"><g id="line2d_14"><g><use x="362.571" y="92.4" stroke="#000" stroke-width=".5" xlink:href="#m0ef7aeb815"/></g></g><g id="line2d_15"><g><use x="362.571" y="25.7" stroke="#000" stroke-width=".5" xlink:href="#m9de6353515"/></g></g></g><g id="xtick_8"><g id="line2d_16"><g><use x="421.2" y="92.4" stroke="#000" stroke-width=".5" xlink:href="#m0ef7aeb815"/></g></g><g id="line2d_17"><g><use x="421.2" y="25.7" stroke="#000" stroke-width=".5" xlink:href="#m9de6353515"/></g></g></g></g><g id="matplotlib.axis_2"><g id="ytick_1"><g id="line2d_18"><defs><path id="mf7b4dcbb3f" stroke="#000" stroke-width=".5" d="M 0 0 L 4 0"/></defs><g><use x="10.8" y="92.4" stroke="#000" stroke-width=".5" xlink:href="#mf7b4dcbb3f"/></g></g><g id="line2d_19"><defs><path id="m24531b1f31" stroke="#000" stroke-width=".5" d="M 0 0 L -4 0"/></defs><g><use x="421.2" y="92.4" stroke="#000" stroke-width=".5" xlink:href="#m24531b1f31"/></g></g></g><g id="ytick_2"><g id="line2d_20"><g><use x="10.8" y="75.725" stroke="#000" stroke-width=".5" xlink:href="#mf7b4dcbb3f"/></g></g><g id="line2d_21"><g><use x="421.2" y="75.725" stroke="#000" stroke-width=".5" xlink:href="#m24531b1f31"/></g></g></g><g id="ytick_3"><g id="line2d_22"><g><use x="10.8" y="59.05" stroke="#000" stroke-width=".5" xlink:href="#mf7b4dcbb3f"/></g></g><g id="line2d_23"><g><use x="421.2" y="59.05" stroke="#000" stroke-width=".5" xlink:href="#m24531b1f31"/></g></g></g><g id="ytick_4"><g id="line2d_24"><g><use x="10.8" y="42.375" stroke="#000" stroke-width=".5" xlink:href="#mf7b4dcbb3f"/></g></g><g id="line2d_25"><g><use x="421.2" y="42.375" stroke="#000" stroke-width=".5" xlink:href="#m24531b1f31"/></g></g></g><g id="ytick_5"><g id="line2d_26"><g><use x="10.8" y="25.7" stroke="#000" stroke-width=".5" xlink:href="#mf7b4dcbb3f"/></g></g><g id="line2d_27"><g><use x="421.2" y="25.7" stroke="#000" stroke-width=".5" xlink:href="#m24531b1f31"/></g></g></g></g><g id="text_1"><defs><path id="DejaVuSans-54" d="M -0.296875 72.90625 L 61.375 72.90625 L 61.375 64.59375 L 35.5 64.59375 L 35.5 0 L 25.59375 0 L 25.59375 64.59375 L -0.296875 64.59375 z"/><path id="DejaVuSans-73" d="M 44.28125 53.078125 L 44.28125 44.578125 Q 40.484375 46.53125 36.375 47.5 Q 32.28125 48.484375 27.875 48.484375 Q 21.1875 48.484375 17.84375 46.4375 Q 14.5 44.390625 14.5 40.28125 Q 14.5 37.15625 16.890625 35.375 Q 19.28125 33.59375 26.515625 31.984375 L 29.59375 31.296875 Q 39.15625 29.25 43.1875 25.515625 Q 47.21875 21.78125 47.21875 15.09375 Q 47.21875 7.46875 41.1875 3.015625 Q 35.15625 -1.421875 24.609375 -1.421875 Q 20.21875 -1.421875 15.453125 -0.5625 Q 10.6875 0.296875 5.421875 2 L 5.421875 11.28125 Q 10.40625 8.6875 15.234375 7.390625 Q 20.0625 6.109375 24.8125 6.109375 Q 31.15625 6.109375 34.5625 8.28125 Q 37.984375 10.453125 37.984375 14.40625 Q 37.984375 18.0625 35.515625 20.015625 Q 33.0625 21.96875 24.703125 23.78125 L 21.578125 24.515625 Q 13.234375 26.265625 9.515625 29.90625 Q 5.8125 33.546875 5.8125 39.890625 Q 5.8125 47.609375 11.28125 51.796875 Q 16.75 56 26.8125 56 Q 31.78125 56 36.171875 55.265625 Q 40.578125 54.546875 44.28125 53.078125"/><path id="DejaVuSans-69" d="M 9.421875 54.6875 L 18.40625 54.6875 L 18.40625 0 L 9.421875 0 z M 9.421875 75.984375 L 18.40625 75.984375 L 18.40625 64.59375 L 9.421875 64.59375 z"/><path id="DejaVuSans-68" d="M 54.890625 33.015625 L 54.890625 0 L 45.90625 0 L 45.90625 32.71875 Q 45.90625 40.484375 42.875 44.328125 Q 39.84375 48.1875 33.796875 48.1875 Q 26.515625 48.1875 22.3125 43.546875 Q 18.109375 38.921875 18.109375 30.90625 L 18.109375 0 L 9.078125 0 L 9.078125 75.984375 L 18.109375 75.984375 L 18.109375 46.1875 Q 21.34375 51.125 25.703125 53.5625 Q 30.078125 56 35.796875 56 Q 45.21875 56 50.046875 50.171875 Q 54.890625 44.34375 54.890625 33.015625"/></defs><g transform="translate(203.7403125 20.7)scale(0.12 -0.12)"><use xlink:href="#DejaVuSans-54"/><use x="61.084" xlink:href="#DejaVuSans-68"/><use x="124.463" xlink:href="#DejaVuSans-69"/><use x="152.246" xlink:href="#DejaVuSans-73"/></g></g></g><g id="axes_2"><g id="patch_7"><path fill="#fff" d="M 10.8 184.8 L 280.8 184.8 L 280.8 118.1 L 10.8 118.1 z"/></g><g id="patch_8"><path fill="#00f" stroke="#000" stroke-linejoin="miter" d="M 10.869361 184.8 L 37.855489 184.8 L 37.855489 118.1 L 10.869361 118.1 z" clip-path="url(#pd6bbf5ff8a)"/></g><g id="patch_9"><path fill="#00f" stroke="#000" stroke-linejoin="miter" d="M 37.855489 184.8 L 64.841616 184.8 L 64.841616 158.12 L 37.855489 158.12 z" clip-path="url(#pd6bbf5ff8a)"/></g><g id="patch_10"><path fill="#00f" stroke="#000" stroke-linejoin="miter" d="M 64.841616 184.8 L 91.827744 184.8 L 91.827744 158.12 L 64.841616 158.12 z" clip-path="url(#pd6bbf5ff8a)"/></g><g id="patch_11"><path fill="#00f" stroke="#000" stroke-linejoin="miter" d="M 91.827744 184.8 L 118.813872 184.8 L 118.813872 164.79 L 91.827744 164.79 z" clip-path="url(#pd6bbf5ff8a)"/></g><g id="patch_12"><path fill="#00f" stroke="#000" stroke-linejoin="miter" d="M 118.813872 184.8 L 145.8 184.8 L 145.8 158.12 L 118.813872 158.12 z" clip-path="url(#pd6bbf5ff8a)"/></g><g id="patch_13"><path fill="#00f" stroke="#000" stroke-linejoin="miter" d="M 145.8 184.8 L 172.786128 184.8 L 172.786128 158.12 L 145.8 158.12 z" clip-path="url(#pd6bbf5ff8a)"/></g><g id="patch_14"><path fill="#00f" stroke="#000" stroke-linejoin="miter" d="M 172.786128 184.8 L 199.772256 184.8 L 199.772256 164.79 L 172.786128 164.79 z" clip-path="url(#pd6bbf5ff8a)"/></g><g id="patch_15"><path fill="#00f" stroke="#000" stroke-linejoin="miter" d="M 199.772256 184.8 L 226.758384 184.8 L 226.758384 158.12 L 199.772256 158.12 z" clip-path="url(#pd6bbf5ff8a)"/></g><g id="patch_16"><path fill="#00f" stroke="#000" stroke-linejoin="miter" d="M 226.758384 184.8 L 253.744511 184.8 L 253.744511 158.12 L 226.758384 158.12 z" clip-path="url(#pd6bbf5ff8a)"/></g><g id="patch_17"><path fill="#00f" stroke="#000" stroke-linejoin="miter" d="M 253.744511 184.8 L 280.730639 184.8 L 280.730639 118.1 L 253.744511 118.1 z" clip-path="url(#pd6bbf5ff8a)"/></g><g id="patch_18"><path fill="none" stroke="#000" stroke-linecap="square" stroke-linejoin="miter" d="M 10.8 184.8 L 10.8 118.1"/></g><g id="patch_19"><path fill="none" stroke="#000" stroke-linecap="square" stroke-linejoin="miter" d="M 10.8 184.8 L 280.8 184.8"/></g><g id="patch_20"><path fill="none" stroke="#000" stroke-linecap="square" stroke-linejoin="miter" d="M 10.8 118.1 L 280.8 118.1"/></g><g id="patch_21"><path fill="none" stroke="#000" stroke-linecap="square" stroke-linejoin="miter" d="M 280.8 184.8 L 280.8 118.1"/></g><g id="matplotlib.axis_3"><g id="xtick_9"><g id="line2d_28"><g><use x="10.8" y="184.8" stroke="#000" stroke-width=".5" xlink:href="#m0ef7aeb815"/></g></g><g id="line2d_29"><g><use x="10.8" y="118.1" stroke="#000" stroke-width=".5" xlink:href="#m9de6353515"/></g></g></g><g id="xtick_10"><g id="line2d_30"><g><use x="78.3" y="184.8" stroke="#000" stroke-width=".5" xlink:href="#m0ef7aeb815"/></g></g><g id="line2d_31"><g><use x="78.3" y="118.1" stroke="#000" stroke-width=".5" xlink:href="#m9de6353515"/></g></g></g><g id="xtick_11"><g id="line2d_32"><g><use x="145.8" y="184.8" stroke="#000" stroke-width=".5" xlink:href="#m0ef7aeb815"/></g></g><g id="line2d_33"><g><use x="145.8" y="118.1" stroke="#000" stroke-width=".5" xlink:href="#m9de6353515"/></g></g></g><g id="xtick_12"><g id="line2d_34"><g><use x="213.3" y="184.8" stroke="#000" stroke-width=".5" xlink:href="#m0ef7aeb815"/></g></g><g id="line2d_35"><g><use x="213.3" y="118.1" stroke="#000" stroke-width=".5" xlink:href="#m9de6353515"/></g></g></g><g id="xtick_13"><g id="line2d_36"><g><use x="280.8" y="184.8" stroke="#000" stroke-width=".5" xlink:href="#m0ef7aeb815"/></g></g><g id="line2d_37"><g><use x="280.8" y="118.1" stroke="#000" stroke-width=".5" xlink:href="#m9de6353515"/></g></g></g></g><g id="matplotlib.axis_4"><g id="ytick_6"><g id="line2d_38"><g><use x="10.8" y="184.8" stroke="#000" stroke-width=".5" xlink:href="#mf7b4dcbb3f"/></g></g><g id="line2d_39"><g><use x="280.8" y="184.8" stroke="#000" stroke-width=".5" xlink:href="#m24531b1f31"/></g></g></g><g id="ytick_7"><g id="line2d_40"><g><use x="10.8" y="171.46" stroke="#000" stroke-width=".5" xlink:href="#mf7b4dcbb3f"/></g></g><g id="line2d_41"><g><use x="280.8" y="171.46" stroke="#000" stroke-width=".5" xlink:href="#m24531b1f31"/></g></g></g><g id="ytick_8"><g id="line2d_42"><g><use x="10.8" y="158.12" stroke="#000" stroke-width=".5" xlink:href="#mf7b4dcbb3f"/></g></g><g id="line2d_43"><g><use x="280.8" y="158.12" stroke="#000" stroke-width=".5" xlink:href="#m24531b1f31"/></g></g></g><g id="ytick_9"><g id="line2d_44"><g><use x="10.8" y="144.78" stroke="#000" stroke-width=".5" xlink:href="#mf7b4dcbb3f"/></g></g><g id="line2d_45"><g><use x="280.8" y="144.78" stroke="#000" stroke-width=".5" xlink:href="#m24531b1f31"/></g></g></g><g id="ytick_10"><g id="line2d_46"><g><use x="10.8" y="131.44" stroke="#000" stroke-width=".5" xlink:href="#mf7b4dcbb3f"/></g></g><g id="line2d_47"><g><use x="280.8" y="131.44" stroke="#000" stroke-width=".5" xlink:href="#m24531b1f31"/></g></g></g><g id="ytick_11"><g id="line2d_48"><g><use x="10.8" y="118.1" stroke="#000" stroke-width=".5" xlink:href="#mf7b4dcbb3f"/></g></g><g id="line2d_49"><g><use x="280.8" y="118.1" stroke="#000" stroke-width=".5" xlink:href="#m24531b1f31"/></g></g></g></g></g><g id="axes_3"><g id="patch_22"><path fill="#fff" d="M 291.6 277.2 L 421.2 277.2 L 421.2 118.1 L 291.6 118.1 z"/></g><g id="PathCollection_1"><defs><path id="m2140dff5b5" stroke="#000" d="M 0 2.236068 C 0.593012 2.236068 1.161816 2.000462 1.581139 1.581139 C 2.000462 1.161816 2.236068 0.593012 2.236068 0 C 2.236068 -0.593012 2.000462 -1.161816 1.581139 -1.581139 C 1.161816 -2.000462 0.593012 -2.236068 0 -2.236068 C -0.593012 -2.236068 -1.161816 -2.000462 -1.581139 -1.581139 C -2.000462 -1.161816 -2.236068 -0.593012 -2.236068 0 C -2.236068 0.593012 -2.000462 1.161816 -1.581139 1.581139 C -1.161816 2.000462 -0.593012 2.236068 0 2.236068 z"/></defs><g clip-path="url(#p747df224e6)"><use x="307.8" y="197.65" fill="#00f" stroke="#000" xlink:href="#m2140dff5b5"/><use x="309.877" y="190.868" fill="#00f" stroke="#000" xlink:href="#m2140dff5b5"/><use x="311.955" y="184.198" fill="#00f" stroke="#000" xlink:href="#m2140dff5b5"/><use x="314.032" y="177.748" fill="#00f" stroke="#000" xlink:href="#m2140dff5b5"/><use x="316.109" y="171.626" fill="#00f" stroke="#000" xlink:href="#m2140dff5b5"/><use x="318.186" y="165.93" fill="#00f" stroke="#000" xlink:href="#m2140dff5b5"/><use x="320.264" y="160.756" fill="#00f" stroke="#000" xlink:href="#m2140dff5b5"/><use x="322.341" y="156.187" fill="#00f" stroke="#000" xlink:href="#m2140dff5b5"/><use x="324.418" y="152.299" fill="#00f" stroke="#000" xlink:href="#m2140dff5b5"/><use x="326.496" y="149.156" fill="#00f" stroke="#000" xlink:href="#m2140dff5b5"/><use x="328.573" y="146.809" fill="#00f" stroke="#000" xlink:href="#m2140dff5b5"/><use x="330.65" y="145.296" fill="#00f" stroke="#000" xlink:href="#m2140dff5b5"/><use x="332.728" y="144.644" fill="#00f" stroke="#000" xlink:href="#m2140dff5b5"/><use x="334.805" y="144.862" fill="#00f" stroke="#000" xlink:href="#m2140dff5b5"/><use x="336.882" y="145.946" fill="#00f" stroke="#000" xlink:href="#m2140dff5b5"/><use x="338.959" y="147.88" fill="#00f" stroke="#000" xlink:href="#m2140dff5b5"/><use x="341.037" y="150.631" fill="#00f" stroke="#000" xlink:href="#m2140dff5b5"/><use x="343.114" y="154.154" fill="#00f" stroke="#000" xlink:href="#m2140dff5b5"/><use x="345.191" y="158.391" fill="#00f" stroke="#000" xlink:href="#m2140dff5b5"/><use x="347.269" y="163.272" fill="#00f" stroke="#000" xlink:href="#m2140dff5b5"/><use x="349.346" y="168.718" fill="#00f" stroke="#000" xlink:href="#m2140dff5b5"/><use x="351.423" y="174.64" fill="#00f" stroke="#000" xlink:href="#m2140dff5b5"/><use x="353.501" y="180.939" fill="#00f" stroke="#000" xlink:href="#m2140dff5b5"/><use x="355.578" y="187.512" fill="#00f" stroke="#000" xlink:href="#m2140dff5b5"/><use x="357.655" y="194.252" fill="#00f" stroke="#000" xlink:href="#m2140dff5b5"/><use x="359.732" y="201.048" fill="#00f" stroke="#000" xlink:href="#m2140dff5b5"/><use x="361.81" y="207.788" fill="#00f" stroke="#000" xlink:href="#m2140dff5b5"/><use x="363.887" y="214.361" fill="#00f" stroke="#000" xlink:href="#m2140dff5b5"/><use x="365.964" y="220.66" fill="#00f" stroke="#000" xlink:href="#m2140dff5b5"/><use x="368.042" y="226.582" fill="#00f" stroke="#000" xlink:href="#m2140dff5b5"/><use x="370.119" y="232.028" fill="#00f" stroke="#000" xlink:href="#m2140dff5b5"/><use x="372.196" y="236.909" fill="#00f" stroke="#000" xlink:href="#m2140dff5b5"/><use x="374.274" y="241.146" fill="#00f" stroke="#000" xlink:href="#m2140dff5b5"/><use x="376.351" y="244.669" fill="#00f" stroke="#000" xlink:href="#m2140dff5b5"/><use x="378.428" y="247.42" fill="#00f" stroke="#000" xlink:href="#m2140dff5b5"/><use x="380.505" y="249.354" fill="#00f" stroke="#000" xlink:href="#m2140dff5b5"/><use x="382.583" y="250.438" fill="#00f" stroke="#000" xlink:href="#m2140dff5b5"/><use x="384.66" y="250.656" fill="#00f" stroke="#000" xlink:href="#m2140dff5b5"/><use x="386.737" y="250.004" fill="#00f" stroke="#000" xlink:href="#m2140dff5b5"/><use x="388.815" y="248.491" fill="#00f" stroke="#000" xlink:href="#m2140dff5b5"/><use x="390.892" y="246.144" fill="#00f" stroke="#000" xlink:href="#m2140dff5b5"/><use x="392.969" y="243.001" fill="#00f" stroke="#000" xlink:href="#m2140dff5b5"/><use x="395.047" y="239.113" fill="#00f" stroke="#000" xlink:href="#m2140dff5b5"/><use x="397.124" y="234.544" fill="#00f" stroke="#000" xlink:href="#m2140dff5b5"/><use x="399.201" y="229.37" fill="#00f" stroke="#000" xlink:href="#m2140dff5b5"/><use x="401.278" y="223.674" fill="#00f" stroke="#000" xlink:href="#m2140dff5b5"/><use x="403.356" y="217.552" fill="#00f" stroke="#000" xlink:href="#m2140dff5b5"/><use x="405.433" y="211.102" fill="#00f" stroke="#000" xlink:href="#m2140dff5b5"/><use x="407.51" y="204.432" fill="#00f" stroke="#000" xlink:href="#m2140dff5b5"/><use x="409.588" y="197.65" fill="#00f" stroke="#000" xlink:href="#m2140dff5b5"/></g></g><g id="patch_23"><path fill="none" stroke="#000" stroke-linecap="square" stroke-linejoin="miter" d="M 291.6 277.2 L 291.6 118.1"/></g><g id="patch_24"><path fill="none" stroke="#000" stroke-linecap="square" stroke-linejoin="miter" d="M 291.6 277.2 L 421.2 277.2"/></g><g id="patch_25"><path fill="none" stroke="#000" stroke-linecap="square" stroke-linejoin="miter" d="M 291.6 118.1 L 421.2 118.1"/></g><g id="patch_26"><path fill="none" stroke="#000" stroke-linecap="square" stroke-linejoin="miter" d="M 421.2 277.2 L 421.2 118.1"/></g><g id="matplotlib.axis_5"><g id="xtick_14"><g id="line2d_50"><g><use x="291.6" y="277.2" stroke="#000" stroke-width=".5" xlink:href="#m0ef7aeb815"/></g></g><g id="line2d_51"><g><use x="291.6" y="118.1" stroke="#000" stroke-width=".5" xlink:href="#m9de6353515"/></g></g></g><g id="xtick_15"><g id="line2d_52"><g><use x="307.8" y="277.2" stroke="#000" stroke-width=".5" xlink:href="#m0ef7aeb815"/></g></g><g id="line2d_53"><g><use x="307.8" y="118.1" stroke="#000" stroke-width=".5" xlink:href="#m9de6353515"/></g></g></g><g id="xtick_16"><g id="line2d_54"><g><use x="324" y="277.2" stroke="#000" stroke-width=".5" xlink:href="#m0ef7aeb815"/></g></g><g id="line2d_55"><g><use x="324" y="118.1" stroke="#000" stroke-width=".5" xlink:href="#m9de6353515"/></g></g></g><g id="xtick_17"><g id="line2d_56"><g><use x="340.2" y="277.2" stroke="#000" stroke-width=".5" xlink:href="#m0ef7aeb815"/></g></g><g id="line2d_57"><g><use x="340.2" y="118.1" stroke="#000" stroke-width=".5" xlink:href="#m9de6353515"/></g></g></g><g id="xtick_18"><g id="line2d_58"><g><use x="356.4" y="277.2" stroke="#000" stroke-width=".5" xlink:href="#m0ef7aeb815"/></g></g><g id="line2d_59"><g><use x="356.4" y="118.1" stroke="#000" stroke-width=".5" xlink:href="#m9de6353515"/></g></g></g><g id="xtick_19"><g id="line2d_60"><g><use x="372.6" y="277.2" stroke="#000" stroke-width=".5" xlink:href="#m0ef7aeb815"/></g></g><g id="line2d_61"><g><use x="372.6" y="118.1" stroke="#000" stroke-width=".5" xlink:href="#m9de6353515"/></g></g></g><g id="xtick_20"><g id="line2d_62"><g><use x="388.8" y="277.2" stroke="#000" stroke-width=".5" xlink:href="#m0ef7aeb815"/></g></g><g id="line2d_63"><g><use x="388.8" y="118.1" stroke="#000" stroke-width=".5" xlink:href="#m9de6353515"/></g></g></g><g id="xtick_21"><g id="line2d_64"><g><use x="405" y="277.2" stroke="#000" stroke-width=".5" xlink:href="#m0ef7aeb815"/></g></g><g id="line2d_65"><g><use x="405" y="118.1" stroke="#000" stroke-width=".5" xlink:href="#m9de6353515"/></g></g></g><g id="xtick_22"><g id="line2d_66"><g><use x="421.2" y="277.2" stroke="#000" stroke-width=".5" xlink:href="#m0ef7aeb815"/></g></g><g id="line2d_67"><g><use x="421.2" y="118.1" stroke="#000" stroke-width=".5" xlink:href="#m9de6353515"/></g></g></g></g><g id="matplotlib.axis_6"><g id="ytick_12"><g id="line2d_68"><g><use x="291.6" y="277.2" stroke="#000" stroke-width=".5" xlink:href="#mf7b4dcbb3f"/></g></g><g id="line2d_69"><g><use x="421.2" y="277.2" stroke="#000" stroke-width=".5" xlink:href="#m24531b1f31"/></g></g></g><g id="ytick_13"><g id="line2d_70"><g><use x="291.6" y="250.683" stroke="#000" stroke-width=".5" xlink:href="#mf7b4dcbb3f"/></g></g><g id="line2d_71"><g><use x="421.2" y="250.683" stroke="#000" stroke-width=".5" xlink:href="#m24531b1f31"/></g></g></g><g id="ytick_14"><g id="line2d_72"><g><use x="291.6" y="224.167" stroke="#000" stroke-width=".5" xlink:href="#mf7b4dcbb3f"/></g></g><g id="line2d_73"><g><use x="421.2" y="224.167" stroke="#000" stroke-width=".5" xlink:href="#m24531b1f31"/></g></g></g><g id="ytick_15"><g id="line2d_74"><g><use x="291.6" y="197.65" stroke="#000" stroke-width=".5" xlink:href="#mf7b4dcbb3f"/></g></g><g id="line2d_75"><g><use x="421.2" y="197.65" stroke="#000" stroke-width=".5" xlink:href="#m24531b1f31"/></g></g></g><g id="ytick_16"><g id="line2d_76"><g><use x="291.6" y="171.133" stroke="#000" stroke-width=".5" xlink:href="#mf7b4dcbb3f"/></g></g><g id="line2d_77"><g><use x="421.2" y="171.133" stroke="#000" stroke-width=".5" xlink:href="#m24531b1f31"/></g></g></g><g id="ytick_17"><g id="line2d_78"><g><use x="291.6" y="144.617" stroke="#000" stroke-width=".5" xlink:href="#mf7b4dcbb3f"/></g></g><g id="line2d_79"><g><use x="421.2" y="144.617" stroke="#000" stroke-width=".5" xlink:href="#m24531b1f31"/></g></g></g><g id="ytick_18"><g id="line2d_80"><g><use x="291.6" y="118.1" stroke="#000" stroke-width=".5" xlink:href="#mf7b4dcbb3f"/></g></g><g id="line2d_81"><g><use x="421.2" y="118.1" stroke="#000" stroke-width=".5" xlink:href="#m24531b1f31"/></g></g></g></g><g id="text_2"><defs><path id="DejaVuSans-6f" d="M 30.609375 48.390625 Q 23.390625 48.390625 19.1875 42.75 Q 14.984375 37.109375 14.984375 27.296875 Q 14.984375 17.484375 19.15625 11.84375 Q 23.34375 6.203125 30.609375 6.203125 Q 37.796875 6.203125 41.984375 11.859375 Q 46.1875 17.53125 46.1875 27.296875 Q 46.1875 37.015625 41.984375 42.703125 Q 37.796875 48.390625 30.609375 48.390625 M 30.609375 56 Q 42.328125 56 49.015625 48.375 Q 55.71875 40.765625 55.71875 27.296875 Q 55.71875 13.875 49.015625 6.21875 Q 42.328125 -1.421875 30.609375 -1.421875 Q 18.84375 -1.421875 12.171875 6.21875 Q 5.515625 13.875 5.515625 27.296875 Q 5.515625 40.765625 12.171875 48.375 Q 18.84375 56 30.609375 56"/><path id="DejaVuSans-74" d="M 18.3125 70.21875 L 18.3125 54.6875 L 36.8125 54.6875 L 36.8125 47.703125 L 18.3125 47.703125 L 18.3125 18.015625 Q 18.3125 11.328125 20.140625 9.421875 Q 21.96875 7.515625 27.59375 7.515625 L 36.8125 7.515625 L 36.8125 0 L 27.59375 0 Q 17.1875 0 13.234375 3.875 Q 9.28125 7.765625 9.28125 18.015625 L 9.28125 47.703125 L 2.6875 47.703125 L 2.6875 54.6875 L 9.28125 54.6875 L 9.28125 70.21875 z"/><path id="DejaVuSans-6c" d="M 9.421875 75.984375 L 18.40625 75.984375 L 18.40625 0 L 9.421875 0 z"/><path id="DejaVuSans-70" d="M 18.109375 8.203125 L 18.109375 -20.796875 L 9.078125 -20.796875 L 9.078125 54.6875 L 18.109375 54.6875 L 18.109375 46.390625 Q 20.953125 51.265625 25.265625 53.625 Q 29.59375 56 35.59375 56 Q 45.5625 56 51.78125 48.09375 Q 58.015625 40.1875 58.015625 27.296875 Q 58.015625 14.40625 51.78125 6.484375 Q 45.5625 -1.421875 35.59375 -1.421875 Q 29.59375 -1.421875 25.265625 0.953125 Q 20.953125 3.328125 18.109375 8.203125 M 48.6875 27.296875 Q 48.6875 37.203125 44.609375 42.84375 Q 40.53125 48.484375 33.40625 48.484375 Q 26.265625 48.484375 22.1875 42.84375 Q 18.109375 37.203125 18.109375 27.296875 Q 18.109375 17.390625 22.1875 11.75 Q 26.265625 6.109375 33.40625 6.109375 Q 40.53125 6.109375 44.609375 11.75 Q 48.6875 17.390625 48.6875 27.296875"/></defs><g transform="translate(344.900625 113.1)scale(0.12 -0.12)"><use xlink:href="#DejaVuSans-70"/><use x="63.477" xlink:href="#DejaVuSans-6c"/><use x="91.26" xlink:href="#DejaVuSans-6f"/><use x="152.441" xlink:href="#DejaVuSans-74"/></g></g></g><g id="axes_4"><g id="patch_27"><path fill="#fff" d="M 10.8 277.2 L 140.4 277.2 L 140.4 210.5 L 10.8 210.5 z"/></g><g id="line2d_82"><path fill="none" stroke="#00f" stroke-linecap="square" d="M 65.88 266.655364 L 85.32 266.655364 L 85.32 221.044636 L 65.88 221.044636 L 65.88 266.655364" clip-path="url(#pc9f954a0f3)"/></g><g id="line2d_83"><path fill="none" stroke="#00f" stroke-dasharray="6 6" stroke-dashoffset="0" d="M 75.6 266.655364 L 75.6 277.182865" clip-path="url(#pc9f954a0f3)"/></g><g id="line2d_84"><path fill="none" stroke="#00f" stroke-dasharray="6 6" stroke-dashoffset="0" d="M 75.6 221.044636 L 75.6 210.517135" clip-path="url(#pc9f954a0f3)"/></g><g id="line2d_85"><path fill="none" stroke="#000" stroke-linecap="square" d="M 70.74 277.182865 L 80.46 277.182865" clip-path="url(#pc9f954a0f3)"/></g><g id="line2d_86"><path fill="none" stroke="#000" stroke-linecap="square" d="M 70.74 210.517135 L 80.46 210.517135" clip-path="url(#pc9f954a0f3)"/></g><g id="line2d_87"><path fill="none" stroke="red" stroke-linecap="square" d="M 65.88 243.85 L 85.32 243.85" clip-path="url(#pc9f954a0f3)"/></g><g id="patch_28"><path fill="none" stroke="#000" stroke-linecap="square" stroke-linejoin="miter" d="M 10.8 277.2 L 10.8 210.5"/></g><g id="patch_29"><path fill="none" stroke="#000" stroke-linecap="square" stroke-linejoin="miter" d="M 10.8 277.2 L 140.4 277.2"/></g><g id="patch_30"><path fill="none" stroke="#000" stroke-linecap="square" stroke-linejoin="miter" d="M 10.8 210.5 L 140.4 210.5"/></g><g id="patch_31"><path fill="none" stroke="#000" stroke-linecap="square" stroke-linejoin="miter" d="M 140.4 277.2 L 140.4 210.5"/></g><g id="matplotlib.axis_7"><g id="xtick_23"><g id="line2d_89"><g><use x="75.6" y="277.2" stroke="#000" stroke-width=".5" xlink:href="#m0ef7aeb815"/></g></g><g id="line2d_90"><g><use x="75.6" y="210.5" stroke="#000" stroke-width=".5" xlink:href="#m9de6353515"/></g></g></g></g><g id="matplotlib.axis_8"><g id="ytick_19"><g id="line2d_91"><g><use x="10.8" y="277.2" stroke="#000" stroke-width=".5" xlink:href="#mf7b4dcbb3f"/></g></g><g id="line2d_92"><g><use x="140.4" y="277.2" stroke="#000" stroke-width=".5" xlink:href="#m24531b1f31"/></g></g></g><g id="ytick_20"><g id="line2d_93"><g><use x="10.8" y="260.525" stroke="#000" stroke-width=".5" xlink:href="#mf7b4dcbb3f"/></g></g><g id="line2d_94"><g><use x="140.4" y="260.525" stroke="#000" stroke-width=".5" xlink:href="#m24531b1f31"/></g></g></g><g id="ytick_21"><g id="line2d_95"><g><use x="10.8" y="243.85" stroke="#000" stroke-width=".5" xlink:href="#mf7b4dcbb3f"/></g></g><g id="line2d_96"><g><use x="140.4" y="243.85" stroke="#000" stroke-width=".5" xlink:href="#m24531b1f31"/></g></g></g><g id="ytick_22"><g id="line2d_97"><g><use x="10.8" y="227.175" stroke="#000" stroke-width=".5" xlink:href="#mf7b4dcbb3f"/></g></g><g id="line2d_98"><g><use x="140.4" y="227.175" stroke="#000" stroke-width=".5" xlink:href="#m24531b1f31"/></g></g></g><g id="ytick_23"><g id="line2d_99"><g><use x="10.8" y="210.5" stroke="#000" stroke-width=".5" xlink:href="#mf7b4dcbb3f"/></g></g><g id="line2d_100"><g><use x="140.4" y="210.5" stroke="#000" stroke-width=".5" xlink:href="#m24531b1f31"/></g></g></g></g></g><g id="axes_5"><g id="patch_32"><path fill="#fff" d="M 151.2 277.2 L 280.8 277.2 L 280.8 210.5 L 151.2 210.5 z"/></g><g id="line2d_101"><path fill="none" stroke="#00f" stroke-linecap="square" d="M 158.197349 240.288454 L 177.704093 230.368505 L 189.114807 224.695748 L 197.210837 220.810766 L 203.490606 217.944339 L 208.621551 215.755589 L 212.959702 214.064676 L 216.717581 212.766512 L 220.032264 211.795907 L 222.997349 211.111367 L 225.679595 210.686856 L 228.128294 210.507443 L 230.380879 210.567083 L 232.466446 210.867767 L 234.408063 211.419804 L 236.224324 212.243292 L 237.93044 213.371266 L 239.539008 214.855682 L 241.060583 216.778869 L 242.504093 219.276968 L 243.87716 222.593598 L 245.186339 227.226368 L 246.437313 234.465513 L 247.635038 250.298015" clip-path="url(#pfee3e3fe8c)"/></g><g id="patch_33"><path fill="none" stroke="#000" stroke-linecap="square" stroke-linejoin="miter" d="M 151.2 277.2 L 151.2 210.5"/></g><g id="patch_34"><path fill="none" stroke="#000" stroke-linecap="square" stroke-linejoin="miter" d="M 151.2 277.2 L 280.8 277.2"/></g><g id="patch_35"><path fill="none" stroke="#000" stroke-linecap="square" stroke-linejoin="miter" d="M 151.2 210.5 L 280.8 210.5"/></g><g id="patch_36"><path fill="none" stroke="#000" stroke-linecap="square" stroke-linejoin="miter" d="M 280.8 277.2 L 280.8 210.5"/></g><g id="matplotlib.axis_9"><g id="xtick_24"><g id="line2d_102"><g><use x="151.2" y="277.2" stroke="#000" stroke-width=".5" xlink:href="#m0ef7aeb815"/></g></g><g id="line2d_103"><g><use x="151.2" y="210.5" stroke="#000" stroke-width=".5" xlink:href="#m9de6353515"/></g></g></g><g id="xtick_25"><g id="line2d_104"><g><use x="216" y="277.2" stroke="#000" stroke-width=".5" xlink:href="#m0ef7aeb815"/></g></g><g id="line2d_105"><g><use x="216" y="210.5" stroke="#000" stroke-width=".5" xlink:href="#m9de6353515"/></g></g></g><g id="xtick_26"><g id="line2d_106"><g><use x="280.8" y="277.2" stroke="#000" stroke-width=".5" xlink:href="#m0ef7aeb815"/></g></g><g id="line2d_107"><g><use x="280.8" y="210.5" stroke="#000" stroke-width=".5" xlink:href="#m9de6353515"/></g></g></g><g id="xtick_27"><g id="line2d_108"><defs><path id="mb262137f36" stroke="#000" stroke-width=".5" d="M 0 0 L 0 -2"/></defs><g><use x="170.707" y="277.2" stroke="#000" stroke-width=".5" xlink:href="#mb262137f36"/></g></g><g id="line2d_109"><defs><path id="m9471487878" stroke="#000" stroke-width=".5" d="M 0 0 L 0 2"/></defs><g><use x="170.707" y="210.5" stroke="#000" stroke-width=".5" xlink:href="#m9471487878"/></g></g></g><g id="xtick_28"><g id="line2d_110"><g><use x="182.117" y="277.2" stroke="#000" stroke-width=".5" xlink:href="#mb262137f36"/></g></g><g id="line2d_111"><g><use x="182.117" y="210.5" stroke="#000" stroke-width=".5" xlink:href="#m9471487878"/></g></g></g><g id="xtick_29"><g id="line2d_112"><g><use x="190.213" y="277.2" stroke="#000" stroke-width=".5" xlink:href="#mb262137f36"/></g></g><g id="line2d_113"><g><use x="190.213" y="210.5" stroke="#000" stroke-width=".5" xlink:href="#m9471487878"/></g></g></g><g id="xtick_30"><g id="line2d_114"><g><use x="196.493" y="277.2" stroke="#000" stroke-width=".5" xlink:href="#mb262137f36"/></g></g><g id="line2d_115"><g><use x="196.493" y="210.5" stroke="#000" stroke-width=".5" xlink:href="#m9471487878"/></g></g></g><g id="xtick_31"><g id="line2d_116"><g><use x="201.624" y="277.2" stroke="#000" stroke-width=".5" xlink:href="#mb262137f36"/></g></g><g id="line2d_117"><g><use x="201.624" y="210.5" stroke="#000" stroke-width=".5" xlink:href="#m9471487878"/></g></g></g><g id="xtick_32"><g id="line2d_118"><g><use x="205.962" y="277.2" stroke="#000" stroke-width=".5" xlink:href="#mb262137f36"/></g></g><g id="line2d_119"><g><use x="205.962" y="210.5" stroke="#000" stroke-width=".5" xlink:href="#m9471487878"/></g></g></g><g id="xtick_33"><g id="line2d_120"><g><use x="209.72" y="277.2" stroke="#000" stroke-width=".5" xlink:href="#mb262137f36"/></g></g><g id="line2d_121"><g><use x="209.72" y="210.5" stroke="#000" stroke-width=".5" xlink:href="#m9471487878"/></g></g></g><g id="xtick_34"><g id="line2d_122"><g><use x="213.035" y="277.2" stroke="#000" stroke-width=".5" xlink:href="#mb262137f36"/></g></g><g id="line2d_123"><g><use x="213.035" y="210.5" stroke="#000" stroke-width=".5" xlink:href="#m9471487878"/></g></g></g><g id="xtick_35"><g id="line2d_124"><g><use x="235.507" y="277.2" stroke="#000" stroke-width=".5" xlink:href="#mb262137f36"/></g></g><g id="line2d_125"><g><use x="235.507" y="210.5" stroke="#000" stroke-width=".5" xlink:href="#m9471487878"/></g></g></g><g id="xtick_36"><g id="line2d_126"><g><use x="246.917" y="277.2" stroke="#000" stroke-width=".5" xlink:href="#mb262137f36"/></g></g><g id="line2d_127"><g><use x="246.917" y="210.5" stroke="#000" stroke-width=".5" xlink:href="#m9471487878"/></g></g></g><g id="xtick_37"><g id="line2d_128"><g><use x="255.013" y="277.2" stroke="#000" stroke-width=".5" xlink:href="#mb262137f36"/></g></g><g id="line2d_129"><g><use x="255.013" y="210.5" stroke="#000" stroke-width=".5" xlink:href="#m9471487878"/></g></g></g><g id="xtick_38"><g id="line2d_130"><g><use x="261.293" y="277.2" stroke="#000" stroke-width=".5" xlink:href="#mb262137f36"/></g></g><g id="line2d_131"><g><use x="261.293" y="210.5" stroke="#000" stroke-width=".5" xlink:href="#m9471487878"/></g></g></g><g id="xtick_39"><g id="line2d_132"><g><use x="266.424" y="277.2" stroke="#000" stroke-width=".5" xlink:href="#mb262137f36"/></g></g><g id="line2d_133"><g><use x="266.424" y="210.5" stroke="#000" stroke-width=".5" xlink:href="#m9471487878"/></g></g></g><g id="xtick_40"><g id="line2d_134"><g><use x="270.762" y="277.2" stroke="#000" stroke-width=".5" xlink:href="#mb262137f36"/></g></g><g id="line2d_135"><g><use x="270.762" y="210.5" stroke="#000" stroke-width=".5" xlink:href="#m9471487878"/></g></g></g><g id="xtick_41"><g id="line2d_136"><g><use x="274.52" y="277.2" stroke="#000" stroke-width=".5" xlink:href="#mb262137f36"/></g></g><g id="line2d_137"><g><use x="274.52" y="210.5" stroke="#000" stroke-width=".5" xlink:href="#m9471487878"/></g></g></g><g id="xtick_42"><g id="line2d_138"><g><use x="277.835" y="277.2" stroke="#000" stroke-width=".5" xlink:href="#mb262137f36"/></g></g><g id="line2d_139"><g><use x="277.835" y="210.5" stroke="#000" stroke-width=".5" xlink:href="#m9471487878"/></g></g></g></g><g id="matplotlib.axis_10"><g id="ytick_24"><g id="line2d_140"><g><use x="151.2" y="277.2" stroke="#000" stroke-width=".5" xlink:href="#mf7b4dcbb3f"/></g></g><g id="line2d_141"><g><use x="280.8" y="277.2" stroke="#000" stroke-width=".5" xlink:href="#m24531b1f31"/></g></g></g><g id="ytick_25"><g id="line2d_142"><g><use x="151.2" y="243.85" stroke="#000" stroke-width=".5" xlink:href="#mf7b4dcbb3f"/></g></g><g id="line2d_143"><g><use x="280.8" y="243.85" stroke="#000" stroke-width=".5" xlink:href="#m24531b1f31"/></g></g></g><g id="ytick_26"><g id="line2d_144"><g><use x="151.2" y="210.5" stroke="#000" stroke-width=".5" xlink:href="#mf7b4dcbb3f"/></g></g><g id="line2d_145"><g><use x="280.8" y="210.5" stroke="#000" stroke-width=".5" xlink:href="#m24531b1f31"/></g></g></g><g id="ytick_27"><g id="line2d_146"><defs><path id="m5fbd83e28b" stroke="#000" stroke-width=".5" d="M 0 0 L 2 0"/></defs><g><use x="151.2" y="267.161" stroke="#000" stroke-width=".5" xlink:href="#m5fbd83e28b"/></g></g><g id="line2d_147"><defs><path id="me29f9f2b6d" stroke="#000" stroke-width=".5" d="M 0 0 L -2 0"/></defs><g><use x="280.8" y="267.161" stroke="#000" stroke-width=".5" xlink:href="#me29f9f2b6d"/></g></g></g><g id="ytick_28"><g id="line2d_148"><g><use x="151.2" y="261.288" stroke="#000" stroke-width=".5" xlink:href="#m5fbd83e28b"/></g></g><g id="line2d_149"><g><use x="280.8" y="261.288" stroke="#000" stroke-width=".5" xlink:href="#me29f9f2b6d"/></g></g></g><g id="ytick_29"><g id="line2d_150"><g><use x="151.2" y="257.121" stroke="#000" stroke-width=".5" xlink:href="#m5fbd83e28b"/></g></g><g id="line2d_151"><g><use x="280.8" y="257.121" stroke="#000" stroke-width=".5" xlink:href="#me29f9f2b6d"/></g></g></g><g id="ytick_30"><g id="line2d_152"><g><use x="151.2" y="253.889" stroke="#000" stroke-width=".5" xlink:href="#m5fbd83e28b"/></g></g><g id="line2d_153"><g><use x="280.8" y="253.889" stroke="#000" stroke-width=".5" xlink:href="#me29f9f2b6d"/></g></g></g><g id="ytick_31"><g id="line2d_154"><g><use x="151.2" y="251.249" stroke="#000" stroke-width=".5" xlink:href="#m5fbd83e28b"/></g></g><g id="line2d_155"><g><use x="280.8" y="251.249" stroke="#000" stroke-width=".5" xlink:href="#me29f9f2b6d"/></g></g></g><g id="ytick_32"><g id="line2d_156"><g><use x="151.2" y="249.016" stroke="#000" stroke-width=".5" xlink:href="#m5fbd83e28b"/></g></g><g id="line2d_157"><g><use x="280.8" y="249.016" stroke="#000" stroke-width=".5" xlink:href="#me29f9f2b6d"/></g></g></g><g id="ytick_33"><g id="line2d_158"><g><use x="151.2" y="247.082" stroke="#000" stroke-width=".5" xlink:href="#m5fbd83e28b"/></g></g><g id="line2d_159"><g><use x="280.8" y="247.082" stroke="#000" stroke-width=".5" xlink:href="#me29f9f2b6d"/></g></g></g><g id="ytick_34"><g id="line2d_160"><g><use x="151.2" y="245.376" stroke="#000" stroke-width=".5" xlink:href="#m5fbd83e28b"/></g></g><g id="line2d_161"><g><use x="280.8" y="245.376" stroke="#000" stroke-width=".5" xlink:href="#me29f9f2b6d"/></g></g></g><g id="ytick_35"><g id="line2d_162"><g><use x="151.2" y="233.811" stroke="#000" stroke-width=".5" xlink:href="#m5fbd83e28b"/></g></g><g id="line2d_163"><g><use x="280.8" y="233.811" stroke="#000" stroke-width=".5" xlink:href="#me29f9f2b6d"/></g></g></g><g id="ytick_36"><g id="line2d_164"><g><use x="151.2" y="227.938" stroke="#000" stroke-width=".5" xlink:href="#m5fbd83e28b"/></g></g><g id="line2d_165"><g><use x="280.8" y="227.938" stroke="#000" stroke-width=".5" xlink:href="#me29f9f2b6d"/></g></g></g><g id="ytick_37"><g id="line2d_166"><g><use x="151.2" y="223.771" stroke="#000" stroke-width=".5" xlink:href="#m5fbd83e28b"/></g></g><g id="line2d_167"><g><use x="280.8" y="223.771" stroke="#000" stroke-width=".5" xlink:href="#me29f9f2b6d"/></g></g></g><g id="ytick_38"><g id="line2d_168"><g><use x="151.2" y="220.539" stroke="#000" stroke-width=".5" xlink:href="#m5fbd83e28b"/></g></g><g id="line2d_169"><g><use x="280.8" y="220.539" stroke="#000" stroke-width=".5" xlink:href="#me29f9f2b6d"/></g></g></g><g id="ytick_39"><g id="line2d_170"><g><use x="151.2" y="217.899" stroke="#000" stroke-width=".5" xlink:href="#m5fbd83e28b"/></g></g><g id="line2d_171"><g><use x="280.8" y="217.899" stroke="#000" stroke-width=".5" xlink:href="#me29f9f2b6d"/></g></g></g><g id="ytick_40"><g id="line2d_172"><g><use x="151.2" y="215.666" stroke="#000" stroke-width=".5" xlink:href="#m5fbd83e28b"/></g></g><g id="line2d_173"><g><use x="280.8" y="215.666" stroke="#000" stroke-width=".5" xlink:href="#me29f9f2b6d"/></g></g></g><g id="ytick_41"><g id="line2d_174"><g><use x="151.2" y="213.732" stroke="#000" stroke-width=".5" xlink:href="#m5fbd83e28b"/></g></g><g id="line2d_175"><g><use x="280.8" y="213.732" stroke="#000" stroke-width=".5" xlink:href="#me29f9f2b6d"/></g></g></g><g id="ytick_42"><g id="line2d_176"><g><use x="151.2" y="212.026" stroke="#000" stroke-width=".5" xlink:href="#m5fbd83e28b"/></g></g><g id="line2d_177"><g><use x="280.8" y="212.026" stroke="#000" stroke-width=".5" xlink:href="#me29f9f2b6d"/></g></g></g></g><g id="text_3"><defs><path id="DejaVuSans-65" d="M 56.203125 29.59375 L 56.203125 25.203125 L 14.890625 25.203125 Q 15.484375 15.921875 20.484375 11.0625 Q 25.484375 6.203125 34.421875 6.203125 Q 39.59375 6.203125 44.453125 7.46875 Q 49.3125 8.734375 54.109375 11.28125 L 54.109375 2.78125 Q 49.265625 0.734375 44.1875 -0.34375 Q 39.109375 -1.421875 33.890625 -1.421875 Q 20.796875 -1.421875 13.15625 6.1875 Q 5.515625 13.8125 5.515625 26.8125 Q 5.515625 40.234375 12.765625 48.109375 Q 20.015625 56 32.328125 56 Q 43.359375 56 49.78125 48.890625 Q 56.203125 41.796875 56.203125 29.59375 M 47.21875 32.234375 Q 47.125 39.59375 43.09375 43.984375 Q 39.0625 48.390625 32.421875 48.390625 Q 24.90625 48.390625 20.390625 44.140625 Q 15.875 39.890625 15.1875 32.171875 z"/><path id="DejaVuSans-72" d="M 41.109375 46.296875 Q 39.59375 47.171875 37.8125 47.578125 Q 36.03125 48 33.890625 48 Q 26.265625 48 22.1875 43.046875 Q 18.109375 38.09375 18.109375 28.8125 L 18.109375 0 L 9.078125 0 L 9.078125 54.6875 L 18.109375 54.6875 L 18.109375 46.1875 Q 20.953125 51.171875 25.484375 53.578125 Q 30.03125 56 36.53125 56 Q 37.453125 56 38.578125 55.875 Q 39.703125 55.765625 41.0625 55.515625 z"/><path id="DejaVuSans-75" d="M 8.5 21.578125 L 8.5 54.6875 L 17.484375 54.6875 L 17.484375 21.921875 Q 17.484375 14.15625 20.5 10.265625 Q 23.53125 6.390625 29.59375 6.390625 Q 36.859375 6.390625 41.078125 11.03125 Q 45.3125 15.671875 45.3125 23.6875 L 45.3125 54.6875 L 54.296875 54.6875 L 54.296875 0 L 45.3125 0 L 45.3125 8.40625 Q 42.046875 3.421875 37.71875 1 Q 33.40625 -1.421875 27.6875 -1.421875 Q 18.265625 -1.421875 13.375 4.4375 Q 8.5 10.296875 8.5 21.578125 M 31.109375 56 z"/><path id="DejaVuSans-21" d="M 15.09375 12.40625 L 25 12.40625 L 25 0 L 15.09375 0 z M 15.09375 72.90625 L 25 72.90625 L 25 40.921875 L 24.03125 23.484375 L 16.109375 23.484375 L 15.09375 40.921875 z"/></defs><g transform="translate(198.8409375 205.5)scale(0.12 -0.12)"><use xlink:href="#DejaVuSans-72"/><use x="41.113" xlink:href="#DejaVuSans-75"/><use x="104.492" xlink:href="#DejaVuSans-6c"/><use x="132.275" xlink:href="#DejaVuSans-65"/><use x="193.799" xlink:href="#DejaVuSans-73"/><use x="245.898" xlink:href="#DejaVuSans-21"/></g></g></g><g id="text_4"><defs><path id="DejaVuSans-61" d="M 34.28125 27.484375 Q 23.390625 27.484375 19.1875 25 Q 14.984375 22.515625 14.984375 16.5 Q 14.984375 11.71875 18.140625 8.90625 Q 21.296875 6.109375 26.703125 6.109375 Q 34.1875 6.109375 38.703125 11.40625 Q 43.21875 16.703125 43.21875 25.484375 L 43.21875 27.484375 z M 52.203125 31.203125 L 52.203125 0 L 43.21875 0 L 43.21875 8.296875 Q 40.140625 3.328125 35.546875 0.953125 Q 30.953125 -1.421875 24.3125 -1.421875 Q 15.921875 -1.421875 10.953125 3.296875 Q 6 8.015625 6 15.921875 Q 6 25.140625 12.171875 29.828125 Q 18.359375 34.515625 30.609375 34.515625 L 43.21875 34.515625 L 43.21875 35.40625 Q 43.21875 41.609375 39.140625 45 Q 35.0625 48.390625 27.6875 48.390625 Q 23 48.390625 18.546875 47.265625 Q 14.109375 46.140625 10.015625 43.890625 L 10.015625 52.203125 Q 14.9375 54.109375 19.578125 55.046875 Q 24.21875 56 28.609375 56 Q 40.484375 56 46.34375 49.84375 Q 52.203125 43.703125 52.203125 31.203125"/><path id="DejaVuSans-20"/><path id="DejaVuSans-79" d="M 32.171875 -5.078125 Q 28.375 -14.84375 24.75 -17.8125 Q 21.140625 -20.796875 15.09375 -20.796875 L 7.90625 -20.796875 L 7.90625 -13.28125 L 13.1875 -13.28125 Q 16.890625 -13.28125 18.9375 -11.515625 Q 21 -9.765625 23.484375 -3.21875 L 25.09375 0.875 L 2.984375 54.6875 L 12.5 54.6875 L 29.59375 11.921875 L 46.6875 54.6875 L 56.203125 54.6875 z"/><path id="DejaVuSans-64" d="M 45.40625 46.390625 L 45.40625 75.984375 L 54.390625 75.984375 L 54.390625 0 L 45.40625 0 L 45.40625 8.203125 Q 42.578125 3.328125 38.25 0.953125 Q 33.9375 -1.421875 27.875 -1.421875 Q 17.96875 -1.421875 11.734375 6.484375 Q 5.515625 14.40625 5.515625 27.296875 Q 5.515625 40.1875 11.734375 48.09375 Q 17.96875 56 27.875 56 Q 33.9375 56 38.25 53.625 Q 42.578125 51.265625 45.40625 46.390625 M 14.796875 27.296875 Q 14.796875 17.390625 18.875 11.75 Q 22.953125 6.109375 30.078125 6.109375 Q 37.203125 6.109375 41.296875 11.75 Q 45.40625 17.390625 45.40625 27.296875 Q 45.40625 37.203125 41.296875 42.84375 Q 37.203125 48.484375 30.078125 48.484375 Q 22.953125 48.484375 18.875 42.84375 Q 14.796875 37.203125 14.796875 27.296875"/><path id="DejaVuSans-2c" d="M 11.71875 12.40625 L 22.015625 12.40625 L 22.015625 4 L 14.015625 -11.625 L 7.71875 -11.625 L 11.71875 4 z"/><path id="DejaVuSans-47" d="M 59.515625 10.40625 L 59.515625 29.984375 L 43.40625 29.984375 L 43.40625 38.09375 L 69.28125 38.09375 L 69.28125 6.78125 Q 63.578125 2.734375 56.6875 0.65625 Q 49.8125 -1.421875 42 -1.421875 Q 24.90625 -1.421875 15.25 8.5625 Q 5.609375 18.5625 5.609375 36.375 Q 5.609375 54.25 15.25 64.234375 Q 24.90625 74.21875 42 74.21875 Q 49.125 74.21875 55.546875 72.453125 Q 61.96875 70.703125 67.390625 67.28125 L 67.390625 56.78125 Q 61.921875 61.421875 55.765625 63.765625 Q 49.609375 66.109375 42.828125 66.109375 Q 29.4375 66.109375 22.71875 58.640625 Q 16.015625 51.171875 16.015625 36.375 Q 16.015625 21.625 22.71875 14.15625 Q 29.4375 6.6875 42.828125 6.6875 Q 48.046875 6.6875 52.140625 7.59375 Q 56.25 8.5 59.515625 10.40625"/></defs><g transform="translate(125.73125 -13.603125)scale(0.2 -0.2)"><use xlink:href="#DejaVuSans-47"/><use x="77.49" xlink:href="#DejaVuSans-72"/><use x="118.604" xlink:href="#DejaVuSans-69"/><use x="146.387" xlink:href="#DejaVuSans-64"/><use x="209.863" xlink:href="#DejaVuSans-20"/><use x="241.65" xlink:href="#DejaVuSans-6c"/><use x="269.434" xlink:href="#DejaVuSans-61"/><use x="330.713" xlink:href="#DejaVuSans-79"/><use x="389.893" xlink:href="#DejaVuSans-6f"/><use x="451.074" xlink:href="#DejaVuSans-75"/><use x="514.453" xlink:href="#DejaVuSans-74"/><use x="553.662" xlink:href="#DejaVuSans-2c"/><use x="585.449" xlink:href="#DejaVuSans-20"/><use x="617.236" xlink:href="#DejaVuSans-79"/><use x="676.416" xlink:href="#DejaVuSans-65"/><use x="737.939" xlink:href="#DejaVuSans-61"/><use x="799.219" xlink:href="#DejaVuSans-68"/><use x="862.598" xlink:href="#DejaVuSans-21"/></g></g></g><defs><clipPath id="p85092e9b7a"><rect width="410.4" height="66.7" x="10.8" y="25.7"/></clipPath><clipPath id="pc9f954a0f3"><rect width="129.6" height="66.7" x="10.8" y="210.5"/></clipPath><clipPath id="p747df224e6"><rect width="129.6" height="159.1" x="291.6" y="118.1"/></clipPath><clipPath id="pfee3e3fe8c"><rect width="129.6" height="66.7" x="151.2" y="210.5"/></clipPath><clipPath id="pd6bbf5ff8a"><rect width="270" height="66.7" x="10.8" y="118.1"/></clipPath></defs></svg>